<svg width="100%" height="100%" viewBox="0 0 100 100" fill="none" xmlns="http://www.w3.org/2000/svg">
<path d="M50.0002 1C22.3894 1 0 23.3855 0 51.0002C0 73.092 14.3266 91.834 34.1933 98.4456C36.692 98.9083 37.6097 97.3609 37.6097 96.0402C37.6097 94.848 37.563 90.909 37.5418 86.7311C23.6313 89.7557 20.6961 80.8317 20.6961 80.8317C18.4217 75.0523 15.1446 73.5159 15.1446 73.5159C10.6083 70.4124 15.4865 70.476 15.4865 70.476C20.5075 70.8289 23.1513 75.6287 23.1513 75.6287C27.6108 83.2728 34.8482 81.0627 37.7014 79.7854C38.15 76.5534 39.4461 74.348 40.8758 73.0994C29.7703 71.8347 18.0954 67.5474 18.0954 48.3889C18.0954 42.9303 20.0487 38.4697 23.2474 34.9682C22.7282 33.7086 21.0169 28.6233 23.7317 21.7361C23.7317 21.7361 27.9304 20.3923 37.4853 26.8614C41.4734 25.7532 45.7509 25.198 50.0002 25.1791C54.2495 25.198 58.5301 25.7532 62.526 26.8614C72.0696 20.3923 76.2624 21.7361 76.2624 21.7361C78.9839 28.6233 77.2718 33.7086 76.7526 34.9682C79.9584 38.4697 81.8983 42.9299 81.8983 48.3889C81.8983 67.5929 70.2014 71.8218 59.0677 73.0594C60.861 74.6111 62.459 77.6541 62.459 82.3187C62.459 89.0086 62.4009 94.3932 62.4009 96.0402C62.4009 97.3707 63.3009 98.9299 65.8357 98.4389C85.6915 91.8199 100 73.0845 100 51.0002C100 23.3855 77.6137 1 50.0002 1Z" fill="currentColor"/>
<path d="M18.7269 72.2265C18.6171 72.4748 18.2257 72.5493 17.8701 72.3791C17.5073 72.2159 17.3034 71.8771 17.421 71.6277C17.5289 71.3721 17.9202 71.3007 18.2822 71.4724C18.6457 71.6352 18.8528 71.9771 18.7269 72.2265V72.2265ZM21.1864 74.421C20.948 74.6421 20.4817 74.5394 20.1653 74.19C19.8382 73.8414 19.777 73.3755 20.019 73.1508C20.2649 72.93 20.717 73.0332 21.0448 73.3822C21.3719 73.7347 21.4354 74.1978 21.186 74.4214L21.1864 74.421ZM22.8738 77.2287C22.5672 77.4416 22.066 77.242 21.7566 76.7974C21.4503 76.3531 21.4503 75.8197 21.7633 75.606C22.0738 75.3923 22.5671 75.5845 22.8809 76.0256C23.1867 76.4778 23.1867 77.0111 22.8734 77.2291L22.8738 77.2287ZM25.727 80.4808C25.4529 80.7827 24.8694 80.7019 24.442 80.2894C24.0051 79.8863 23.8832 79.3141 24.1581 79.0118C24.4353 78.709 25.0224 78.7941 25.4529 79.2032C25.887 79.6055 26.0196 80.1819 25.7274 80.4808H25.727ZM29.4148 81.5788C29.2944 81.9701 28.732 82.1481 28.1658 81.9819C27.6003 81.8105 27.2301 81.3517 27.3442 80.956C27.4619 80.5619 28.0266 80.3764 28.5971 80.5545C29.1618 80.7251 29.5328 81.1803 29.4152 81.5788H29.4148ZM33.6123 82.0442C33.6264 82.4568 33.146 82.7987 32.5515 82.8062C31.9535 82.8191 31.47 82.4854 31.4637 82.0799C31.4637 81.6635 31.9331 81.3246 32.5307 81.3148C33.1252 81.3031 33.6123 81.6344 33.6123 82.0442V82.0442ZM37.7353 81.8862C37.8066 82.2885 37.3933 82.7019 36.8031 82.8117C36.2228 82.9175 35.6855 82.6693 35.6114 82.2705C35.5393 81.858 35.9604 81.445 36.5396 81.338C37.131 81.2352 37.66 81.4772 37.7353 81.8862" fill="currentColor"/>
</svg>
