<svg width="100%" height="100%" viewBox="0 0 16 16" fill="none" xmlns="http://www.w3.org/2000/svg">
<path d="M2.0769 5.84769H13.9231V13.3862C13.9231 13.6718 13.8096 13.9457 13.6076 14.1476C13.4057 14.3496 13.1317 14.4631 12.8461 14.4631H3.15383C2.86821 14.4631 2.59429 14.3496 2.39232 14.1476C2.19037 13.9457 2.0769 13.6718 2.0769 13.3862V5.84769Z" stroke="currentColor" stroke-linecap="round" stroke-linejoin="round"/>
<path d="M15 4.77077V2.61692C15 2.02216 14.5179 1.54 13.9231 1.54H2.07692C1.48215 1.54 1 2.02216 1 2.61692V4.77077C1 5.36553 1.48215 5.84769 2.07692 5.84769H13.9231C14.5179 5.84769 15 5.36553 15 4.77077Z" stroke="currentColor" stroke-linecap="round" stroke-linejoin="round"/>
<path d="M6.38461 9.07846H9.61538" stroke="currentColor" stroke-linecap="round" stroke-linejoin="round"/>
</svg>
