<svg width="100%" height="100%" viewBox="0 0 16 16" fill="none" xmlns="http://www.w3.org/2000/svg">
<path d="M9.38074 2H6.61151C6.10171 2 5.68843 2.41328 5.68843 2.92308V3.38462C5.68843 3.89441 6.10171 4.30769 6.61151 4.30769H9.38074C9.89054 4.30769 10.3038 3.89441 10.3038 3.38462V2.92308C10.3038 2.41328 9.89054 2 9.38074 2Z" stroke="currentColor" stroke-linecap="round" stroke-linejoin="round"/>
<path d="M10.3038 8.92307H5.68843" stroke="currentColor" stroke-linecap="round" stroke-linejoin="round"/>
<path d="M10.3038 11.2308H5.68843" stroke="currentColor" stroke-linecap="round" stroke-linejoin="round"/>
<path d="M10.3038 6.61538H5.68843" stroke="currentColor" stroke-linecap="round" stroke-linejoin="round"/>
<path d="M10.5346 2.92308H11.9192C12.164 2.92308 12.3989 3.02033 12.5719 3.19344C12.745 3.36655 12.8423 3.60134 12.8423 3.84616V13.0769C12.8423 13.3217 12.745 13.5566 12.5719 13.7296C12.3989 13.9027 12.164 14 11.9192 14H4.07307C3.82825 14 3.59347 13.9027 3.42035 13.7296C3.24725 13.5566 3.14999 13.3217 3.14999 13.0769V3.84616C3.14999 3.60134 3.24725 3.36655 3.42035 3.19344C3.59347 3.02033 3.82825 2.92308 4.07307 2.92308H5.45769" stroke="currentColor" stroke-linecap="round" stroke-linejoin="round"/>
</svg>
