<svg width="100%" height="100%" viewBox="0 0 16 16" fill="none" xmlns="http://www.w3.org/2000/svg">
<path fill-rule="evenodd" clip-rule="evenodd" d="M2.63137 2.86779C2.63137 2.38852 3.02017 1.99999 3.49978 1.99999C4.87868 1.99999 6.24408 2.2714 7.51802 2.79871C8.79196 3.32602 9.9495 4.09892 10.9246 5.07326C11.8996 6.04761 12.673 7.20432 13.2007 8.47737C13.7284 9.75041 14 11.1149 14 12.4928C14 12.972 13.6111 13.3606 13.1316 13.3606C12.652 13.3606 12.2632 12.972 12.2632 12.4928C12.2632 11.3427 12.0365 10.204 11.5961 9.14155C11.1557 8.07907 10.5102 7.11368 9.69642 6.3005C8.88267 5.48732 7.9166 4.84227 6.85338 4.40218C5.79015 3.96209 4.6506 3.73557 3.49978 3.73557C3.02017 3.73557 2.63137 3.34705 2.63137 2.86779ZM3.71291 10.5766C2.7669 10.5766 2 11.343 2 12.2883C2 13.2337 2.7669 14 3.71291 14C4.65893 14 5.42582 13.2337 5.42582 12.2883C5.42582 11.343 4.65893 10.5766 3.71291 10.5766ZM3.49978 6.08781C3.02017 6.08781 2.63137 6.47634 2.63137 6.9556C2.63137 7.43487 3.02017 7.82339 3.49978 7.82339C4.1134 7.82339 4.72102 7.94417 5.28793 8.17883C5.85485 8.41349 6.36996 8.75744 6.80386 9.19103C7.23776 9.62462 7.58194 10.1394 7.81677 10.7059C8.05159 11.2724 8.17245 11.8796 8.17245 12.4928C8.17245 12.972 8.56125 13.3606 9.04086 13.3606C9.52046 13.3606 9.90926 12.972 9.90926 12.4928C9.90926 11.6517 9.74347 10.8188 9.42136 10.0417C9.09926 9.26462 8.62714 8.55855 8.03196 7.96379C7.43679 7.36903 6.73021 6.89724 5.95258 6.57536C5.17494 6.25348 4.34148 6.08781 3.49978 6.08781Z" fill="currentColor"/>
</svg>
